HIERARCHY
ROOT Head
{
	OFFSET 0 0 0
	CHANNELS 6 Xposition Yposition Zposition Zrotation Xrotation Yrotation
	JOINT Brows_Inner_Up
	{
		OFFSET -11.000 0 0
		CHANNELS 3 Zrotation Xrotation Yrotation
		End Site
		{
			OFFSET 0 0 10
		}
	}
	JOINT Brows_Inner_Down
	{
		OFFSET -9.000 0 0
		CHANNELS 3 Zrotation Xrotation Yrotation
		End Site
		{
			OFFSET 0 0 10
		}
	}
	JOINT Brows_Outer_Up
	{
		OFFSET -7.000 0 0
		CHANNELS 3 Zrotation Xrotation Yrotation
		End Site
		{
			OFFSET 0 0 10
		}
	}
	JOINT Brows_Outer_Down
	{
		OFFSET -5.000 0 0
		CHANNELS 3 Zrotation Xrotation Yrotation
		End Site
		{
			OFFSET 0 0 10
		}
	}
	JOINT Lip_Stretch
	{
		OFFSET -3.000 0 0
		CHANNELS 3 Zrotation Xrotation Yrotation
		End Site
		{
			OFFSET 0 0 10
		}
	}
	JOINT Lip_Kiss
	{
		OFFSET -1.000 0 0
		CHANNELS 3 Zrotation Xrotation Yrotation
		End Site
		{
			OFFSET 0 0 10
		}
	}
	JOINT Lip_Corners_Up
	{
		OFFSET 1.000 0 0
		CHANNELS 3 Zrotation Xrotation Yrotation
		End Site
		{
			OFFSET 0 0 10
		}
	}
	JOINT Lip_Corners_Down
	{
		OFFSET 3.000 0 0
		CHANNELS 3 Zrotation Xrotation Yrotation
		End Site
		{
			OFFSET 0 0 10
		}
	}
	JOINT Upper_Lip_Up
	{
		OFFSET 5.000 0 0
		CHANNELS 3 Zrotation Xrotation Yrotation
		End Site
		{
			OFFSET 0 0 10
		}
	}
	JOINT Upper_Lip_Down
	{
		OFFSET 7.000 0 0
		CHANNELS 3 Zrotation Xrotation Yrotation
		End Site
		{
			OFFSET 0 0 10
		}
	}
	JOINT Jaw_Open
	{
		OFFSET 9.000 0 0
		CHANNELS 3 Zrotation Xrotation Yrotation
		End Site
		{
			OFFSET 0 0 10
		}
	}
}
MOTION
Frames:	43
Frame Time:	0.0333333
3.316440 -2.040427 -97.213188 0.449135 -2.160298 4.563674 0 -0.000000 0 0 22.389507 0 0 -0.000000 0 0 23.748547 0 0 31.555630 0 0 0.000000 0 0 2.015923 0 0 -0.000000 0 0 0.000000 0 0 7.907567 0 0 12.152431 0
3.316440 -2.040427 -97.213188 0.449135 -2.160298 4.563674 0 -0.000000 0 0 22.389507 0 0 -0.000000 0 0 23.748547 0 0 31.555630 0 0 0.000000 0 0 2.015923 0 0 -0.000000 0 0 0.000000 0 0 7.907567 0 0 12.152431 0
3.316440 -2.040427 -97.213188 0.449135 -2.160298 4.563674 0 -0.000000 0 0 22.389507 0 0 -0.000000 0 0 23.748547 0 0 31.555630 0 0 0.000000 0 0 2.015923 0 0 -0.000000 0 0 0.000000 0 0 7.907567 0 0 12.152431 0
3.316440 -2.040427 -97.213188 0.449135 -2.160298 4.563674 0 -0.000000 0 0 22.389507 0 0 -0.000000 0 0 23.748547 0 0 31.555630 0 0 0.000000 0 0 2.015923 0 0 -0.000000 0 0 0.000000 0 0 7.907567 0 0 12.152431 0
3.316440 -2.040427 -97.213188 0.449135 -2.160298 4.563674 0 -0.000000 0 0 22.389507 0 0 -0.000000 0 0 23.748547 0 0 31.555630 0 0 0.000000 0 0 2.015923 0 0 -0.000000 0 0 0.000000 0 0 7.907567 0 0 12.152431 0
3.222711 -1.901165 -97.200920 0.512313 -1.243174 4.710745 0 -0.000000 0 0 27.428209 0 0 -0.000000 0 0 29.497559 0 0 31.901772 0 0 0.000000 0 0 -0.201592 0 0 2.930929 0 0 0.000000 0 0 4.383267 0 0 13.758048 0
3.070490 -1.871343 -97.326996 0.868570 -1.198608 4.918180 0 -0.000000 0 0 0.297639 0 0 -0.000000 0 0 5.572435 0 0 41.155834 0 0 0.000000 0 0 -0.489869 0 0 4.456645 0 0 0.000000 0 0 9.053628 0 0 13.228914 0
3.110272 -1.898775 -97.363365 0.671393 -1.559173 4.563846 0 -0.000000 0 0 -5.226593 0 0 -0.000000 0 0 -0.294867 0 0 43.337692 0 0 0.000000 0 0 -0.321477 0 0 5.842310 0 0 0.000000 0 0 16.061718 0 0 14.069337 0
3.131992 -1.912795 -97.367836 0.593596 -1.695760 4.445775 0 -0.000000 0 0 -4.608649 0 0 -0.000000 0 0 0.100693 0 0 43.096470 0 0 0.000000 0 0 -0.190131 0 0 5.814649 0 0 0.000000 0 0 17.057323 0 0 14.186785 0
3.230486 -1.878035 -97.383461 0.796591 -1.481325 3.767067 0 9.184569 0 0 -2.216299 0 0 -0.000000 0 0 3.717461 0 0 40.152252 0 0 0.000000 0 0 -0.056915 0 0 9.389149 0 0 0.000000 0 0 17.269840 0 0 16.538265 0
3.235973 -1.878772 -97.378204 0.802755 -1.470789 3.764445 0 8.832821 0 0 -1.286020 0 0 -0.000000 0 0 4.554209 0 0 39.862598 0 0 0.000000 0 0 -0.029755 0 0 9.049691 0 0 0.000000 0 0 16.716688 0 0 16.382027 0
3.234843 -1.881443 -97.372803 0.796053 -1.474446 3.802154 0 8.239243 0 0 -0.708617 0 0 -0.000000 0 0 5.019070 0 0 39.764618 0 0 0.000000 0 0 -0.015254 0 0 8.673580 0 0 0.000000 0 0 16.312548 0 0 16.182652 0
3.229520 -1.886101 -97.365593 0.779732 -1.487501 3.875420 0 7.479762 0 0 -0.196108 0 0 -0.000000 0 0 5.397912 0 0 39.728367 0 0 0.000000 0 0 -0.003844 0 0 8.237203 0 0 0.000000 0 0 15.916124 0 0 15.942198 0
3.227548 -1.887517 -97.363640 0.774282 -1.492173 3.898497 0 7.306674 0 0 -0.100087 0 0 -0.000000 0 0 5.464419 0 0 39.728279 0 0 0.000000 0 0 -0.001900 0 0 8.141867 0 0 0.000000 0 0 15.836864 0 0 15.888744 0
3.226185 -1.888448 -97.362366 0.770606 -1.495378 3.913812 0 7.210937 0 0 -0.050366 0 0 -0.000000 0 0 5.497970 0 0 39.729576 0 0 0.000000 0 0 -0.000931 0 0 8.089808 0 0 0.000000 0 0 15.794831 0 0 15.859398 0
2.991093 -1.931875 -97.300125 1.451543 -2.015820 5.140457 0 -2.051366 0 0 9.880426 0 0 -0.000000 0 0 26.884630 0 0 40.087067 0 0 0.000000 0 0 -0.000220 0 0 5.708011 0 0 0.000000 0 0 17.895260 0 0 21.291178 0
2.991093 -1.931875 -97.300125 1.451543 -2.015820 5.140457 0 -2.051366 0 0 9.880426 0 0 -0.000000 0 0 26.884630 0 0 40.087067 0 0 0.000000 0 0 -0.000220 0 0 5.708011 0 0 0.000000 0 0 17.895260 0 0 21.291178 0
3.066497 -1.929816 -97.261284 0.726526 -2.093107 4.759716 0 -1.713220 0 0 22.977573 0 0 -0.000000 0 0 26.900700 0 0 43.180222 0 0 0.000000 0 0 -0.000106 0 0 9.274873 0 0 0.000000 0 0 19.579679 0 0 21.024408 0
3.207931 -1.860233 -97.217453 0.138947 -1.395010 3.812460 0 -0.666920 0 0 26.940712 0 0 -0.000000 0 0 32.499714 0 0 50.542294 0 0 0.000000 0 0 -0.000024 0 0 2.295976 0 0 0.000000 0 0 16.604351 0 0 17.848295 0
3.215416 -1.854676 -97.220001 0.149348 -1.328507 3.770392 0 -0.372112 0 0 25.041666 0 0 -0.000000 0 0 32.104664 0 0 50.204613 0 0 0.000000 0 0 -0.000012 0 0 2.396460 0 0 0.000000 0 0 16.209713 0 0 17.538647 0
3.089164 -1.802864 -97.226891 0.337697 -0.757374 4.344328 0 -0.199850 0 0 23.389223 0 0 -0.000000 0 0 35.961689 0 0 53.348587 0 0 0.000000 0 0 -0.000005 0 0 -0.232812 0 0 0.000000 0 0 11.842015 0 0 15.173978 0
3.040223 -1.790649 -97.236183 0.456765 -0.610064 4.588266 0 -0.053591 0 0 22.130177 0 0 -0.000000 0 0 35.270851 0 0 53.022148 0 0 0.000000 0 0 -0.000001 0 0 -0.160311 0 0 0.000000 0 0 11.440775 0 0 15.033772 0
3.043287 -1.795125 -97.238716 0.471034 -0.654231 4.583115 0 -0.027068 0 0 21.921782 0 0 -0.000000 0 0 34.596760 0 0 52.548325 0 0 0.000000 0 0 -0.000001 0 0 0.171819 0 0 0.000000 0 0 11.825702 0 0 15.266797 0
3.053728 -1.803191 -97.241302 0.477594 -0.737064 4.545966 0 -0.006677 0 0 21.769321 0 0 -0.000000 0 0 33.864635 0 0 52.022491 0 0 0.000000 0 0 -0.000000 0 0 0.551474 0 0 0.000000 0 0 12.300006 0 0 15.546679 0
3.057439 -1.805672 -97.241928 0.477668 -0.762874 4.531711 0 -0.003274 0 0 21.745058 0 0 -0.000000 0 0 33.709751 0 0 51.910030 0 0 0.000000 0 0 -0.000000 0 0 0.633838 0 0 0.000000 0 0 12.406426 0 0 15.608782 0
3.059981 -1.807308 -97.242271 0.477345 -0.779951 4.521772 0 -0.001594 0 0 21.733358 0 0 -0.000000 0 0 33.626038 0 0 51.849045 0 0 0.000000 0 0 -0.000000 0 0 0.678716 0 0 0.000000 0 0 12.465018 0 0 15.642863 0
3.010011 -1.800655 -97.156479 0.835503 -0.473456 4.675699 0 -0.000372 0 0 14.484226 0 0 -0.000000 0 0 27.202808 0 0 44.852127 0 0 0.000000 0 0 0.078517 0 0 2.752697 0 0 0.000000 0 0 10.406542 0 0 10.637045 0
3.006367 -1.804247 -97.148964 0.902719 -0.489700 4.689352 0 -0.000178 0 0 14.114231 0 0 -0.000000 0 0 24.982077 0 0 44.653774 0 0 0.000000 0 0 -0.020190 0 0 3.316017 0 0 0.000000 0 0 10.669954 0 0 10.536247 0
3.046747 -1.883456 -97.281898 0.655643 -1.349811 4.473012 0 0.065345 0 0 -2.759248 0 0 -0.000000 0 0 16.371643 0 0 39.396095 0 0 0.000000 0 0 -0.034071 0 0 8.972947 0 0 0.000000 0 0 13.389421 0 0 13.302382 0
3.186224 -1.938812 -97.348061 0.432172 -2.323393 3.686573 0 17.070309 0 0 -4.248562 0 0 -0.000000 0 0 -4.763642 0 0 43.983047 0 0 0.000000 0 0 -0.017018 0 0 14.205178 0 0 0.000000 0 0 29.458618 0 0 19.677347 0
3.189395 -1.951538 -97.341576 0.342095 -2.411072 3.651588 0 17.555264 0 0 -2.742062 0 0 0.000000 0 0 -4.443371 0 0 45.546108 0 0 0.000000 0 0 -0.009935 0 0 14.568713 0 0 0.000000 0 0 29.921764 0 0 19.414694 0
3.183725 -1.949722 -97.334145 0.328756 -2.366430 3.681260 0 16.557938 0 0 -1.607521 0 0 0.000000 0 0 -2.494801 0 0 45.783691 0 0 0.000000 0 0 -0.005495 0 0 13.961811 0 0 0.000000 0 0 28.887510 0 0 18.979570 0
3.171103 -1.938905 -97.323730 0.355500 -2.230754 3.757958 0 14.867878 0 0 -0.476829 0 0 0.000000 0 0 0.319445 0 0 45.540440 0 0 0.000000 0 0 -0.001528 0 0 12.907040 0 0 0.000000 0 0 27.150154 0 0 18.424665 0
3.166976 -1.934812 -97.320869 0.368879 -2.183414 3.783910 0 14.444694 0 0 -0.248617 0 0 0.000000 0 0 0.990300 0 0 45.434750 0 0 0.000000 0 0 -0.000781 0 0 12.641102 0 0 0.000000 0 0 26.716196 0 0 18.298378 0
3.162435 -1.930102 -97.317863 0.385320 -2.130218 3.812790 0 14.073857 0 0 -0.064133 0 0 0.000000 0 0 1.568620 0 0 45.329498 0 0 0.000000 0 0 -0.000196 0 0 12.407547 0 0 0.000000 0 0 26.336210 0 0 18.191278 0
3.161332 -1.928923 -97.317169 0.389599 -2.117111 3.819860 0 14.005014 0 0 -0.031962 0 0 0.000000 0 0 1.674702 0 0 45.308258 0 0 0.000000 0 0 -0.000097 0 0 12.364122 0 0 0.000000 0 0 26.265717 0 0 18.171871 0
3.160661 -1.928198 -97.316727 0.392271 -2.109095 3.824173 0 13.969490 0 0 -0.015779 0 0 0.000000 0 0 1.729182 0 0 45.296967 0 0 0.000000 0 0 -0.000047 0 0 12.341699 0 0 0.000000 0 0 26.229334 0 0 18.161953 0
3.274958 -1.903535 -97.377441 0.528660 -1.841744 3.269676 0 -2.157435 0 0 2.126021 0 0 0.000000 0 0 24.056200 0 0 38.656509 0 0 0.000000 0 0 -0.000011 0 0 7.243329 0 0 0.000000 0 0 29.962141 0 0 20.151373 0
3.247481 -1.917496 -97.369232 1.001449 -1.873916 3.202116 0 -3.872593 0 0 11.156982 0 0 0.000000 0 0 34.889816 0 0 39.701778 0 0 0.000000 0 0 -0.000005 0 0 6.552649 0 0 0.000000 0 0 29.055960 0 0 16.621658 0
3.296675 -1.841049 -97.401718 1.102416 -1.188550 2.914162 0 -3.048453 0 0 11.429888 0 0 0.000000 0 0 36.436935 0 0 43.238377 0 0 0.000000 0 0 -0.000003 0 0 3.450087 0 0 0.000000 0 0 26.265514 0 0 14.257020 0
3.308801 -1.818516 -97.409531 1.101375 -0.993788 2.851981 0 -1.959408 0 0 10.678345 0 0 0.000000 0 0 34.847725 0 0 44.101326 0 0 0.000000 0 0 -0.000001 0 0 3.221162 0 0 0.000000 0 0 25.682508 0 0 14.028117 0
3.183769 -1.808452 -97.237885 0.605335 -0.883682 3.563444 0 -0.634759 0 0 16.766123 0 0 0.000000 0 0 30.353510 0 0 44.300495 0 0 0.000000 0 0 -0.000000 0 0 5.615567 0 0 0.000000 0 0 26.384331 0 0 17.651907 0
3.183769 -1.808452 -97.237885 0.605335 -0.883682 3.563444 0 -0.634759 0 0 16.766123 0 0 0.000000 0 0 30.353510 0 0 44.300495 0 0 0.000000 0 0 -0.000000 0 0 5.615567 0 0 0.000000 0 0 26.384331 0 0 17.651907 0
